# xmcd
#
# Track frame offsets:
# 150
# 21803
# 32003
# 50847
# 70063
# 89628
# 114387
# 132904
# 152549
# 165162
#
# Disc length: 2400 seconds
#
#
# Revision: 0
# Processed by: cddbd v1.5.2PL0 Copyright (c) Steve Scherf et al.
# Submitted via: FreeRIP 2.90 
#
DISCID=79095e0a
DTITLE=BAP - Vun drinnen oh drusse
DYEAR=1982
DGENRE=Country
TTITLE0=Kristallnaach
TTITLE1=Wellenreiter
TTITLE2=Zehnter Juni
TTITLE3=Wie 'ne Stein
TTITLE4=Do kanns zaubere
TTITLE5=Nit für Kooche
TTITLE6=Ahn'ner Leitplank
TTITLE7=Wenn et Bedde sich lohne däät
TTITLE8=Eins für Carmen un en Insel
TTITLE9=Koot vüür Aach
EXTD=
EXTT0=
EXTT1=
EXTT2=
EXTT3=
EXTT4=
EXTT5=
EXTT6=
EXTT7=
EXTT8=
EXTT9=
PLAYORDER=
